<svg width="24" height="24" viewBox="0 0 24 24" fill="none" xmlns="http://www.w3.org/2000/svg">
<path d="M11.8001 1.02721e-06C14.9001 7.56201e-07 17.9 1.20002 20.1 3.40002C24.7 8.00002 24.7 15.5 20.1 20.1C17.9 22.3 14.9001 23.5 11.8001 23.5C8.70012 23.5 5.70007 22.3 3.50007 20.1C1.30007 17.9 7.17274e-05 14.9 7.14564e-05 11.8C7.11854e-05 8.69999 1.20009 5.7 3.4001 3.5C5.70009 1.3 8.70012 1.29822e-06 11.8001 1.02721e-06ZM11.8001 21.6C14.4001 21.6 16.9001 20.6 18.7001 18.7C22.5001 14.9 22.5001 8.70002 18.7001 4.90002C16.9001 3.10003 14.4001 2 11.8001 2C9.20012 2 6.70009 3.00003 4.9001 4.90003C3.1001 6.70003 2.00007 9.19999 2.00007 11.8C2.00007 14.4 3.0001 16.9 4.9001 18.7C6.8001 20.6 9.20012 21.6 11.8001 21.6Z" fill="black"/>
<path d="M9.40015 5.99999C9.70015 5.99999 9.9001 6.09998 10.1001 6.29998L14.9001 11.1C15.1001 11.3 15.2002 11.5 15.2002 11.8C15.2002 12.1 15.1001 12.3 14.9001 12.5L10.1001 17.3C9.7001 17.7 9.1002 17.7 8.7002 17.3C8.3002 16.9 8.3002 16.3 8.7002 15.9L12.8002 11.8L8.70019 7.7C8.30019 7.3 8.30019 6.69998 8.70019 6.29998C8.90019 6.09998 9.20015 5.99999 9.40015 5.99999Z" fill="black"/>
</svg>
